<svg id="svg" version="1.1" xmlns="http://www.w3.org/2000/svg" xmlns:xlink="http://www.w3.org/1999/xlink" width="400" height="235.8974358974359" viewBox="0, 0, 400,235.8974358974359"><g id="svgg"><path id="path0" d="M0.000 117.994 L 0.000 235.988 200.000 235.988 L 400.000 235.988 400.000 117.994 L 400.000 0.000 200.000 0.000 L 0.000 0.000 0.000 117.994 M206.136 62.230 C 208.732 62.334,210.991 62.507,211.157 62.614 C 211.514 62.845,216.236 63.362,222.215 63.825 C 227.166 64.209,227.977 64.333,229.263 64.902 C 229.782 65.132,231.095 65.500,232.181 65.719 C 234.031 66.094,235.520 66.699,240.708 69.187 C 247.175 72.287,250.783 73.903,252.452 74.445 C 253.135 74.667,253.849 75.003,254.038 75.193 C 254.228 75.382,254.954 75.734,255.653 75.974 C 256.352 76.215,257.337 76.667,257.842 76.979 C 258.931 77.652,265.169 80.708,265.453 80.708 C 265.562 80.708,265.890 80.916,266.183 81.170 C 266.476 81.424,267.209 81.817,267.812 82.044 C 268.415 82.271,269.386 82.734,269.971 83.072 C 270.555 83.411,271.855 84.078,272.861 84.554 C 273.867 85.030,274.690 85.509,274.690 85.619 C 274.690 85.729,275.248 86.075,275.929 86.388 C 276.611 86.701,277.221 87.023,277.286 87.104 C 277.351 87.186,277.882 87.491,278.466 87.784 C 279.050 88.076,280.112 88.709,280.826 89.190 C 281.540 89.671,282.731 90.341,283.473 90.679 C 284.215 91.017,285.033 91.491,285.291 91.731 C 285.549 91.972,286.164 92.314,286.656 92.490 C 287.149 92.667,288.136 93.197,288.850 93.668 C 292.020 95.760,293.122 96.047,298.879 96.278 C 303.485 96.463,307.436 96.940,308.555 97.446 C 309.563 97.902,311.475 98.205,314.784 98.432 C 316.680 98.562,318.602 98.763,319.056 98.879 C 319.510 98.995,320.572 99.160,321.416 99.246 C 322.260 99.332,324.118 99.611,325.546 99.866 C 326.973 100.121,329.522 100.424,331.209 100.540 C 334.644 100.776,339.238 101.398,339.813 101.705 C 340.361 101.999,342.626 102.369,345.723 102.670 C 347.499 102.843,349.095 103.162,350.340 103.592 C 351.387 103.954,352.821 104.327,353.526 104.420 C 355.552 104.687,358.458 105.412,360.000 106.034 C 360.779 106.349,362.159 106.740,363.068 106.905 C 363.976 107.069,365.145 107.437,365.664 107.723 C 366.183 108.009,367.164 108.427,367.843 108.652 C 368.523 108.878,369.532 109.320,370.085 109.635 C 370.639 109.951,371.754 110.536,372.563 110.936 C 376.117 112.694,377.026 114.547,377.300 120.597 C 377.423 123.316,377.625 125.422,377.791 125.733 C 378.004 126.131,378.009 126.477,377.809 127.142 C 377.664 127.627,377.453 131.156,377.340 134.985 C 377.033 145.364,376.970 145.727,375.007 148.306 C 373.294 150.559,373.270 150.784,374.477 153.400 C 375.348 155.286,375.304 155.593,373.703 158.839 C 371.820 162.658,370.925 163.810,369.518 164.232 C 368.962 164.398,367.868 164.834,367.086 165.200 C 366.304 165.567,364.973 166.043,364.130 166.258 C 363.286 166.474,361.645 167.022,360.483 167.476 C 355.925 169.256,353.110 169.010,350.808 166.629 C 348.840 164.594,347.310 165.317,344.911 169.414 C 342.421 173.665,336.486 178.312,332.693 178.979 C 332.212 179.064,331.245 179.386,330.545 179.696 C 327.131 181.206,318.694 181.215,314.218 179.713 C 313.310 179.408,311.856 178.939,310.987 178.671 C 306.882 177.404,300.290 172.181,298.187 168.529 C 298.066 168.319,297.880 168.040,297.775 167.908 C 297.669 167.777,297.095 167.005,296.499 166.193 C 295.903 165.381,295.189 164.558,294.912 164.364 C 293.950 163.691,290.194 164.165,288.882 165.126 C 287.467 166.163,290.121 166.125,210.532 166.267 C 146.879 166.381,134.279 166.457,133.687 166.726 C 132.827 167.118,131.633 168.345,131.118 169.368 C 130.577 170.442,128.834 173.102,127.670 174.629 C 125.206 177.860,119.588 181.769,116.150 182.645 C 115.672 182.767,114.537 183.084,113.628 183.350 C 105.685 185.678,101.775 185.563,92.271 182.723 C 91.168 182.393,90.000 181.945,89.676 181.727 C 89.351 181.510,88.608 181.126,88.024 180.876 C 86.015 180.013,83.673 178.113,81.250 175.379 C 78.444 172.213,78.295 172.015,77.856 170.865 C 75.940 165.842,75.111 165.192,70.623 165.192 C 69.345 165.192,67.136 165.035,65.713 164.842 C 64.291 164.650,61.162 164.391,58.761 164.267 C 55.823 164.114,53.701 163.875,52.271 163.536 C 48.472 162.634,47.116 162.353,44.838 161.997 C 43.605 161.805,42.065 161.397,41.416 161.090 C 40.767 160.783,39.719 160.333,39.088 160.089 C 36.454 159.073,33.404 150.959,33.813 146.056 C 34.108 142.516,35.525 135.825,37.058 130.737 C 38.294 126.632,38.519 124.489,38.692 115.162 C 38.872 105.480,38.915 105.158,40.413 102.436 C 42.545 98.561,44.683 97.748,50.383 98.643 C 56.064 99.535,62.162 99.750,62.924 99.086 C 63.165 98.875,63.642 98.556,63.984 98.378 C 64.325 98.199,65.662 97.044,66.954 95.811 C 68.246 94.578,69.825 93.304,70.463 92.979 L 71.622 92.389 83.219 92.322 C 95.202 92.252,96.378 92.318,100.767 93.295 C 101.611 93.483,103.363 93.812,104.661 94.025 C 105.959 94.238,108.454 94.732,110.206 95.122 C 111.959 95.512,114.295 95.985,115.398 96.173 C 119.636 96.896,121.661 97.299,121.888 97.465 C 122.155 97.660,125.472 98.303,127.434 98.540 C 128.147 98.626,129.740 98.944,130.973 99.247 C 134.750 100.173,136.642 100.484,139.469 100.642 C 142.369 100.805,147.993 101.555,148.457 101.842 C 148.827 102.070,161.905 102.405,179.705 102.640 C 191.419 102.795,194.452 102.901,195.988 103.210 C 197.027 103.419,198.583 103.592,199.447 103.594 C 200.310 103.597,202.381 103.751,204.048 103.938 C 205.716 104.124,209.575 104.338,212.625 104.414 C 222.560 104.660,230.849 105.034,234.123 105.382 C 235.888 105.569,238.118 105.727,239.079 105.733 C 240.040 105.739,241.304 105.847,241.888 105.973 C 243.608 106.345,250.084 106.670,260.295 106.897 C 265.955 107.023,270.286 107.219,270.914 107.379 C 271.499 107.528,273.622 107.738,275.634 107.847 C 277.646 107.955,280.088 108.155,281.062 108.292 C 284.874 108.826,292.611 108.518,292.337 107.842 C 292.210 107.529,289.661 105.575,288.378 104.808 C 284.900 102.728,282.956 101.525,280.185 99.740 C 279.248 99.137,278.380 98.643,278.256 98.643 C 278.132 98.643,277.570 98.298,277.007 97.876 C 276.444 97.454,275.506 96.849,274.924 96.530 C 274.341 96.212,273.511 95.712,273.080 95.420 C 272.648 95.127,272.090 94.823,271.841 94.744 C 271.591 94.664,271.386 94.500,271.386 94.379 C 271.386 94.258,271.276 94.159,271.141 94.159 C 270.910 94.159,269.519 93.266,269.263 92.953 C 269.198 92.874,268.783 92.624,268.341 92.397 C 267.899 92.171,267.114 91.678,266.595 91.303 C 266.076 90.927,265.546 90.619,265.417 90.619 C 265.287 90.619,264.587 90.222,263.859 89.736 C 263.132 89.250,262.033 88.584,261.416 88.255 C 260.800 87.926,260.085 87.477,259.828 87.257 C 259.571 87.037,258.854 86.588,258.235 86.259 C 257.616 85.931,256.844 85.464,256.519 85.221 C 255.646 84.568,251.597 82.273,250.442 81.776 C 249.891 81.538,249.440 81.254,249.440 81.144 C 249.440 81.034,249.328 80.944,249.191 80.944 C 249.055 80.944,247.542 80.264,245.829 79.432 C 244.116 78.600,242.289 77.805,241.770 77.665 C 241.251 77.525,240.507 77.214,240.118 76.975 C 239.729 76.736,238.642 76.308,237.703 76.023 C 236.764 75.738,235.649 75.302,235.225 75.054 C 234.801 74.806,233.499 74.371,232.330 74.086 C 231.162 73.802,229.723 73.380,229.133 73.149 C 228.543 72.918,226.790 72.496,225.239 72.212 C 223.688 71.928,221.393 71.381,220.138 70.997 C 216.872 69.995,212.995 69.825,190.324 69.684 C 160.285 69.497,128.553 70.099,124.956 70.923 C 124.177 71.102,122.319 71.413,120.826 71.614 C 115.620 72.318,111.409 73.692,109.122 75.432 C 108.721 75.738,108.281 75.988,108.145 75.988 C 108.010 75.988,106.958 76.871,105.808 77.950 C 97.151 86.075,97.942 85.768,86.064 85.609 C 77.237 85.491,76.632 85.291,71.962 80.944 C 71.474 80.490,70.667 79.741,70.169 79.280 C 69.670 78.819,68.944 78.039,68.555 77.548 C 68.165 77.056,67.555 76.304,67.198 75.877 C 66.424 74.950,66.421 74.924,67.014 73.698 C 67.567 72.553,67.979 72.376,71.622 71.714 C 73.050 71.455,74.537 71.083,74.926 70.888 C 75.316 70.693,77.174 70.332,79.056 70.085 C 80.938 69.838,83.168 69.420,84.012 69.157 C 85.538 68.679,86.437 68.540,92.507 67.840 C 94.260 67.638,96.968 67.169,98.525 66.797 C 100.691 66.280,102.412 66.059,105.841 65.857 C 110.101 65.607,111.982 65.379,116.578 64.560 C 117.690 64.362,122.267 64.039,126.844 63.836 C 131.386 63.634,135.900 63.372,136.873 63.254 C 137.847 63.135,139.440 63.031,140.413 63.023 C 141.386 63.015,143.015 62.849,144.033 62.655 C 145.212 62.429,147.477 62.290,150.286 62.270 C 152.708 62.253,155.487 62.161,156.460 62.067 C 158.728 61.845,199.900 61.981,206.136 62.230 " stroke="none" fill="#fcfcfc" fill-rule="evenodd"></path><path id="path1" d="M156.460 62.067 C 155.487 62.161,152.708 62.253,150.286 62.270 C 147.477 62.290,145.212 62.429,144.033 62.655 C 143.015 62.849,141.386 63.015,140.413 63.023 C 139.440 63.031,137.847 63.135,136.873 63.254 C 135.900 63.372,131.386 63.634,126.844 63.836 C 122.267 64.039,117.690 64.362,116.578 64.560 C 111.982 65.379,110.101 65.607,105.841 65.857 C 102.412 66.059,100.691 66.280,98.525 66.797 C 96.968 67.169,94.260 67.638,92.507 67.840 C 86.437 68.540,85.538 68.679,84.012 69.157 C 83.168 69.420,80.938 69.838,79.056 70.085 C 77.174 70.332,75.316 70.693,74.926 70.888 C 74.537 71.083,73.050 71.455,71.622 71.714 C 67.979 72.376,67.567 72.553,67.014 73.698 C 66.421 74.924,66.424 74.950,67.198 75.877 C 67.555 76.304,68.165 77.056,68.555 77.548 C 68.944 78.039,69.670 78.819,70.169 79.280 C 70.667 79.741,71.474 80.490,71.962 80.944 C 76.632 85.291,77.237 85.491,86.064 85.609 C 97.942 85.768,97.151 86.075,105.808 77.950 C 106.958 76.871,108.010 75.988,108.145 75.988 C 108.281 75.988,108.721 75.738,109.122 75.432 C 111.409 73.692,115.620 72.318,120.826 71.614 C 122.319 71.413,124.177 71.102,124.956 70.923 C 128.553 70.099,160.285 69.497,190.324 69.684 C 212.995 69.825,216.872 69.995,220.138 70.997 C 221.393 71.381,223.688 71.928,225.239 72.212 C 226.790 72.496,228.543 72.918,229.133 73.149 C 229.723 73.380,231.162 73.802,232.330 74.086 C 233.499 74.371,234.801 74.806,235.225 75.054 C 235.649 75.302,236.764 75.738,237.703 76.023 C 238.642 76.308,239.729 76.736,240.118 76.975 C 240.507 77.214,241.251 77.525,241.770 77.665 C 242.289 77.805,244.116 78.600,245.829 79.432 C 247.542 80.264,249.055 80.944,249.191 80.944 C 249.328 80.944,249.440 81.034,249.440 81.144 C 249.440 81.254,249.891 81.538,250.442 81.776 C 251.597 82.273,255.646 84.568,256.519 85.221 C 256.844 85.464,257.616 85.931,258.235 86.259 C 258.854 86.588,259.571 87.037,259.828 87.257 C 260.085 87.477,260.800 87.926,261.416 88.255 C 262.033 88.584,263.132 89.250,263.859 89.736 C 264.587 90.222,265.287 90.619,265.417 90.619 C 265.546 90.619,266.076 90.927,266.595 91.303 C 267.114 91.678,267.899 92.171,268.341 92.397 C 268.783 92.624,269.198 92.874,269.263 92.953 C 269.519 93.266,270.910 94.159,271.141 94.159 C 271.276 94.159,271.386 94.258,271.386 94.379 C 271.386 94.500,271.591 94.664,271.841 94.744 C 272.090 94.823,272.648 95.127,273.080 95.420 C 273.511 95.712,274.341 96.212,274.924 96.530 C 275.506 96.849,276.444 97.454,277.007 97.876 C 277.570 98.298,278.132 98.643,278.256 98.643 C 278.380 98.643,279.248 99.137,280.185 99.740 C 282.956 101.525,284.900 102.728,288.378 104.808 C 289.661 105.575,292.210 107.529,292.337 107.842 C 292.611 108.518,284.874 108.826,281.062 108.292 C 280.088 108.155,277.646 107.955,275.634 107.847 C 273.622 107.738,271.499 107.528,270.914 107.379 C 270.286 107.219,265.955 107.023,260.295 106.897 C 250.084 106.670,243.608 106.345,241.888 105.973 C 241.304 105.847,240.040 105.739,239.079 105.733 C 238.118 105.727,235.888 105.569,234.123 105.382 C 230.849 105.034,222.560 104.660,212.625 104.414 C 209.575 104.338,205.716 104.124,204.048 103.938 C 202.381 103.751,200.310 103.597,199.447 103.594 C 198.583 103.592,197.027 103.419,195.988 103.210 C 194.452 102.901,191.419 102.795,179.705 102.640 C 161.905 102.405,148.827 102.070,148.457 101.842 C 147.993 101.555,142.369 100.805,139.469 100.642 C 136.642 100.484,134.750 100.173,130.973 99.247 C 129.740 98.944,128.147 98.626,127.434 98.540 C 125.472 98.303,122.155 97.660,121.888 97.465 C 121.661 97.299,119.636 96.896,115.398 96.173 C 114.295 95.985,111.959 95.512,110.206 95.122 C 108.454 94.732,105.959 94.238,104.661 94.025 C 103.363 93.812,101.611 93.483,100.767 93.295 C 96.378 92.318,95.202 92.252,83.219 92.322 L 71.622 92.389 70.463 92.979 C 69.825 93.304,68.246 94.578,66.954 95.811 C 65.662 97.044,64.325 98.199,63.984 98.378 C 63.642 98.556,63.165 98.875,62.924 99.086 C 62.162 99.750,56.064 99.535,50.383 98.643 C 44.683 97.748,42.545 98.561,40.413 102.436 C 38.915 105.158,38.872 105.480,38.692 115.162 C 38.519 124.489,38.294 126.632,37.058 130.737 C 35.525 135.825,34.108 142.516,33.813 146.056 C 33.404 150.959,36.454 159.073,39.088 160.089 C 39.719 160.333,40.767 160.783,41.416 161.090 C 42.065 161.397,43.605 161.805,44.838 161.997 C 47.116 162.353,48.472 162.634,52.271 163.536 C 53.701 163.875,55.823 164.114,58.761 164.267 C 61.162 164.391,64.291 164.650,65.713 164.842 C 67.136 165.035,69.345 165.192,70.623 165.192 C 75.111 165.192,75.940 165.842,77.856 170.865 C 78.295 172.015,78.444 172.213,81.250 175.379 C 83.673 178.113,86.015 180.013,88.024 180.876 C 88.608 181.126,89.351 181.510,89.676 181.727 C 90.000 181.945,91.168 182.393,92.271 182.723 C 101.775 185.563,105.685 185.678,113.628 183.350 C 114.537 183.084,115.672 182.767,116.150 182.645 C 119.588 181.769,125.206 177.860,127.670 174.629 C 128.834 173.102,130.577 170.442,131.118 169.368 C 131.633 168.345,132.827 167.118,133.687 166.726 C 134.279 166.457,146.879 166.381,210.532 166.267 C 290.121 166.125,287.467 166.163,288.882 165.126 C 290.194 164.165,293.950 163.691,294.912 164.364 C 295.189 164.558,295.903 165.381,296.499 166.193 C 297.095 167.005,297.669 167.777,297.775 167.908 C 297.880 168.040,298.066 168.319,298.187 168.529 C 300.290 172.181,306.882 177.404,310.987 178.671 C 311.856 178.939,313.310 179.408,314.218 179.713 C 318.694 181.215,327.131 181.206,330.545 179.696 C 331.245 179.386,332.212 179.064,332.693 178.979 C 336.486 178.312,342.421 173.665,344.911 169.414 C 347.310 165.317,348.840 164.594,350.808 166.629 C 353.110 169.010,355.925 169.256,360.483 167.476 C 361.645 167.022,363.286 166.474,364.130 166.258 C 364.973 166.043,366.304 165.567,367.086 165.200 C 367.868 164.834,368.962 164.398,369.518 164.232 C 370.925 163.810,371.820 162.658,373.703 158.839 C 375.304 155.593,375.348 155.286,374.477 153.400 C 373.270 150.784,373.294 150.559,375.007 148.306 C 376.970 145.727,377.033 145.364,377.340 134.985 C 377.453 131.156,377.664 127.627,377.809 127.142 C 378.009 126.477,378.004 126.131,377.791 125.733 C 377.625 125.422,377.423 123.316,377.300 120.597 C 377.026 114.547,376.117 112.694,372.563 110.936 C 371.754 110.536,370.639 109.951,370.085 109.635 C 369.532 109.320,368.523 108.878,367.843 108.652 C 367.164 108.427,366.183 108.009,365.664 107.723 C 365.145 107.437,363.976 107.069,363.068 106.905 C 362.159 106.740,360.779 106.349,360.000 106.034 C 358.458 105.412,355.552 104.687,353.526 104.420 C 352.821 104.327,351.387 103.954,350.340 103.592 C 349.095 103.162,347.499 102.843,345.723 102.670 C 342.626 102.369,340.361 101.999,339.813 101.705 C 339.238 101.398,334.644 100.776,331.209 100.540 C 329.522 100.424,326.973 100.121,325.546 99.866 C 324.118 99.611,322.260 99.332,321.416 99.246 C 320.572 99.160,319.510 98.995,319.056 98.879 C 318.602 98.763,316.680 98.562,314.784 98.432 C 311.475 98.205,309.563 97.902,308.555 97.446 C 307.436 96.940,303.485 96.463,298.879 96.278 C 293.122 96.047,292.020 95.760,288.850 93.668 C 288.136 93.197,287.149 92.667,286.656 92.490 C 286.164 92.314,285.549 91.972,285.291 91.731 C 285.033 91.491,284.215 91.017,283.473 90.679 C 282.731 90.341,281.540 89.671,280.826 89.190 C 280.112 88.709,279.050 88.076,278.466 87.784 C 277.882 87.491,277.351 87.186,277.286 87.104 C 277.221 87.023,276.611 86.701,275.929 86.388 C 275.248 86.075,274.690 85.729,274.690 85.619 C 274.690 85.509,273.867 85.030,272.861 84.554 C 271.855 84.078,270.555 83.411,269.971 83.072 C 269.386 82.734,268.415 82.271,267.812 82.044 C 267.209 81.817,266.476 81.424,266.183 81.170 C 265.890 80.916,265.562 80.708,265.453 80.708 C 265.169 80.708,258.931 77.652,257.842 76.979 C 257.337 76.667,256.352 76.215,255.653 75.974 C 254.954 75.734,254.228 75.382,254.038 75.193 C 253.849 75.003,253.135 74.667,252.452 74.445 C 250.783 73.903,247.175 72.287,240.708 69.187 C 235.520 66.699,234.031 66.094,232.181 65.719 C 231.095 65.500,229.782 65.132,229.263 64.902 C 227.977 64.333,227.166 64.209,222.215 63.825 C 216.236 63.362,211.514 62.845,211.157 62.614 C 210.377 62.110,161.077 61.616,156.460 62.067 " stroke="none" fill="#d4d4d4" fill-rule="evenodd"></path></g></svg>