<svg id="svg" version="1.1" xmlns="http://www.w3.org/2000/svg" xmlns:xlink="http://www.w3.org/1999/xlink" width="400" height="353.1914893617021" viewBox="0, 0, 400,353.1914893617021"><g id="svgg"><path id="path0" d="M0.000 176.678 L 0.000 353.357 200.000 353.357 L 400.000 353.357 400.000 176.678 L 400.000 0.000 200.000 0.000 L 0.000 0.000 0.000 176.678 M176.502 25.579 C 185.427 26.166,185.926 26.240,190.989 27.736 C 192.739 28.253,195.124 28.923,196.290 29.225 C 199.865 30.151,203.240 31.461,203.887 32.173 C 203.984 32.281,204.938 32.818,206.007 33.369 C 208.201 34.498,211.071 36.386,211.249 36.817 C 211.313 36.974,211.592 37.102,211.867 37.102 C 212.142 37.102,212.367 37.231,212.367 37.388 C 212.367 37.545,213.322 38.291,214.488 39.046 C 215.654 39.801,216.608 40.554,216.608 40.721 C 216.608 41.012,217.979 42.403,219.088 43.236 C 219.383 43.458,220.178 44.352,220.855 45.223 C 221.531 46.095,222.333 47.058,222.637 47.365 C 224.904 49.658,228.936 55.678,230.200 58.657 C 230.571 59.532,231.050 60.486,231.265 60.777 C 231.677 61.337,232.437 63.738,233.364 67.403 C 236.209 78.658,236.042 74.683,236.042 131.189 C 236.042 175.199,236.106 181.238,236.572 181.625 C 236.864 181.867,237.102 182.271,237.102 182.522 C 237.102 182.773,237.825 183.615,238.707 184.391 L 240.312 185.804 252.753 185.981 C 270.254 186.231,277.554 187.143,282.602 189.711 C 283.345 190.090,284.366 190.526,286.926 191.560 C 287.995 191.992,289.120 192.557,289.427 192.815 C 289.734 193.074,290.171 193.286,290.399 193.286 C 290.626 193.286,290.813 193.420,290.813 193.583 C 290.813 193.746,291.170 194.066,291.608 194.293 C 292.045 194.521,292.880 195.021,293.463 195.405 C 294.046 195.789,294.854 196.250,295.258 196.430 C 295.663 196.610,296.458 197.267,297.025 197.890 C 297.592 198.513,298.528 199.442,299.105 199.953 C 301.062 201.688,302.827 203.505,302.828 203.785 C 302.828 203.938,303.277 204.364,303.824 204.730 C 304.670 205.297,306.969 208.359,309.252 211.959 C 310.394 213.759,313.061 219.499,313.464 221.025 C 313.618 221.608,314.083 223.198,314.497 224.558 C 314.911 225.919,315.389 227.986,315.559 229.152 C 315.730 230.318,316.057 232.147,316.287 233.216 C 316.564 234.505,316.793 242.468,316.967 256.890 C 317.125 269.883,317.378 279.190,317.598 280.035 C 318.490 283.464,320.229 286.864,321.624 287.905 C 321.956 288.153,322.462 288.590,322.749 288.877 C 323.036 289.164,323.441 289.399,323.650 289.399 C 323.858 289.399,324.028 289.530,324.028 289.689 C 324.028 290.529,329.544 292.579,331.802 292.578 C 336.165 292.576,342.886 288.193,344.913 284.028 C 347.009 279.721,346.810 285.688,346.912 224.061 C 346.998 172.069,346.963 168.040,346.412 167.431 C 346.085 167.070,345.129 166.431,344.287 166.010 L 342.756 165.246 340.194 166.560 C 337.351 168.019,336.306 168.620,336.042 168.947 C 335.883 169.146,333.181 170.672,331.436 171.550 C 331.054 171.742,330.742 172.018,330.742 172.164 C 330.742 172.310,330.146 172.695,329.417 173.021 C 323.841 175.512,321.706 174.763,316.676 168.551 C 315.967 167.677,314.907 166.461,314.319 165.849 C 312.702 164.167,311.601 162.900,310.063 160.954 C 309.295 159.982,308.306 158.837,307.867 158.409 C 307.427 157.981,307.067 157.544,307.067 157.437 C 307.067 157.331,306.824 156.966,306.527 156.625 C 303.612 153.286,301.778 150.996,301.773 150.687 C 301.770 150.482,301.210 149.707,300.530 148.965 C 299.850 148.222,299.293 147.566,299.293 147.507 C 299.293 147.320,296.674 142.940,296.451 142.756 C 296.334 142.659,296.129 142.341,295.995 142.049 C 295.861 141.758,295.448 141.042,295.077 140.459 C 294.706 139.876,293.821 138.207,293.111 136.749 C 292.400 135.292,291.592 133.677,291.316 133.161 C 291.039 132.645,290.813 131.988,290.813 131.700 C 290.813 131.412,290.575 130.721,290.285 130.164 C 289.995 129.607,289.756 128.866,289.755 128.516 C 289.754 128.166,289.497 127.386,289.184 126.781 C 288.308 125.086,288.683 114.210,289.737 110.777 C 290.154 109.417,290.633 107.827,290.800 107.244 C 290.968 106.661,291.449 105.309,291.870 104.240 C 292.291 103.171,292.788 101.786,292.974 101.161 C 293.160 100.537,293.466 99.931,293.653 99.815 C 293.840 99.700,293.993 99.367,293.993 99.076 C 293.993 98.785,294.729 97.005,295.629 95.121 C 299.004 88.059,299.061 87.822,297.937 85.536 C 297.195 84.028,286.725 72.792,286.061 72.792 C 285.718 72.792,282.586 69.875,276.193 63.604 C 268.121 55.686,268.481 56.026,266.508 54.471 C 263.298 51.942,261.757 49.387,261.939 46.896 C 262.154 43.981,266.046 32.862,266.852 32.862 C 267.009 32.862,267.143 32.663,267.149 32.420 C 267.215 29.789,272.922 30.261,276.855 33.222 C 277.049 33.368,278.083 33.859,279.152 34.312 C 280.221 34.765,281.617 35.487,282.254 35.916 C 283.411 36.695,284.986 37.466,287.986 38.723 C 288.860 39.089,290.097 39.737,290.734 40.162 C 291.923 40.956,293.668 41.804,296.466 42.946 C 297.341 43.303,298.336 43.830,298.677 44.116 C 299.400 44.722,300.531 45.395,301.732 45.933 C 304.337 47.100,307.067 48.583,307.067 48.831 C 307.067 48.988,307.306 49.117,307.597 49.117 C 307.889 49.117,308.127 49.265,308.127 49.446 C 308.127 49.627,308.485 49.887,308.922 50.023 C 310.286 50.448,314.202 52.368,315.703 53.347 C 316.492 53.862,317.853 54.567,318.728 54.913 C 321.162 55.876,322.655 56.623,324.218 57.660 C 325.003 58.180,326.078 58.715,326.607 58.848 C 327.136 58.980,327.656 59.230,327.763 59.403 C 327.870 59.576,328.305 59.721,328.731 59.726 C 329.157 59.731,330.380 60.360,331.449 61.124 C 332.518 61.888,334.585 63.112,336.042 63.844 C 337.500 64.577,339.264 65.657,339.962 66.245 C 342.063 68.014,342.756 68.551,342.937 68.551 C 343.143 68.551,344.523 69.903,344.523 70.105 C 344.523 70.249,345.589 71.544,347.615 73.861 C 348.246 74.583,348.763 75.269,348.763 75.384 C 348.763 75.500,349.280 76.127,349.912 76.778 C 351.375 78.285,353.357 80.589,353.357 80.782 C 353.357 80.864,354.038 81.604,354.870 82.426 C 355.703 83.249,357.011 84.717,357.778 85.689 C 358.545 86.661,359.335 87.626,359.533 87.835 C 359.732 88.043,360.530 88.989,361.307 89.936 C 362.085 90.883,363.208 92.223,363.804 92.914 C 364.400 93.604,365.672 95.175,366.631 96.405 C 369.760 100.417,370.690 101.577,371.492 102.473 C 371.926 102.959,372.829 104.072,373.499 104.947 C 374.168 105.822,375.223 107.094,375.843 107.774 C 377.436 109.521,382.332 116.188,382.332 116.610 C 382.332 116.803,382.472 116.961,382.643 116.961 C 382.813 116.961,383.151 117.438,383.392 118.021 C 383.634 118.604,383.971 119.081,384.142 119.081 C 384.313 119.081,384.452 119.320,384.452 119.611 C 384.452 119.903,384.598 120.141,384.777 120.141 C 384.955 120.141,385.461 120.738,385.900 121.466 C 386.832 123.012,390.156 127.331,390.546 127.503 C 390.693 127.568,390.813 127.829,390.813 128.084 C 390.813 128.338,391.017 128.625,391.267 128.721 C 391.896 128.962,393.993 133.358,393.993 134.434 C 393.993 135.318,392.757 138.033,392.054 138.693 C 391.417 139.290,389.441 140.636,389.202 140.636 C 388.764 140.636,386.572 143.045,386.572 143.526 C 386.572 143.793,386.294 144.406,385.954 144.886 C 385.372 145.709,385.324 149.782,385.142 214.488 C 384.961 279.124,384.911 283.363,384.314 285.689 C 383.964 287.049,383.546 288.907,383.384 289.817 C 383.221 290.728,382.919 291.791,382.711 292.179 C 382.502 292.568,382.332 293.209,382.332 293.604 C 382.332 295.905,375.824 307.701,372.500 311.426 C 369.806 314.445,364.690 319.342,363.604 319.941 C 362.924 320.316,361.970 320.987,361.484 321.432 C 360.998 321.876,359.408 322.856,357.951 323.608 C 356.493 324.360,354.585 325.377,353.710 325.867 C 352.250 326.687,346.388 328.481,339.046 330.355 C 334.874 331.421,324.345 330.950,320.495 329.526 C 319.814 329.275,318.304 328.789,317.138 328.446 C 312.417 327.057,310.197 326.156,307.951 324.716 C 307.367 324.342,306.652 323.938,306.360 323.819 C 304.859 323.203,302.827 322.054,302.827 321.820 C 302.827 321.674,302.588 321.555,302.297 321.555 C 302.005 321.555,301.767 321.409,301.767 321.232 C 301.767 321.054,300.956 320.410,299.965 319.800 C 298.974 319.190,297.376 317.904,296.414 316.943 C 295.453 315.981,294.515 315.194,294.329 315.194 C 294.144 315.194,293.993 315.052,293.993 314.878 C 293.993 314.704,293.258 313.790,292.360 312.846 C 290.716 311.118,289.450 309.346,288.231 307.067 C 287.868 306.387,287.385 305.671,287.159 305.477 C 286.933 305.283,286.430 304.490,286.042 303.716 C 285.653 302.941,285.137 302.095,284.894 301.835 C 284.651 301.575,284.452 301.215,284.452 301.033 C 284.452 300.852,284.045 299.869,283.548 298.850 C 282.023 295.724,280.595 291.225,280.229 288.389 C 280.038 286.904,279.717 285.134,279.516 284.455 C 279.285 283.669,279.145 275.380,279.132 261.663 C 279.113 242.186,279.051 239.884,278.486 237.809 C 277.424 233.904,276.191 231.319,274.647 229.759 C 274.015 229.121,273.498 228.515,273.498 228.414 C 273.498 227.736,270.895 226.071,268.877 225.457 C 266.662 224.785,265.583 224.735,253.207 224.735 L 239.915 224.735 238.597 225.573 C 235.800 227.350,236.011 225.460,236.144 247.564 C 236.292 272.120,235.815 270.114,242.694 275.136 C 244.380 276.367,246.287 277.814,246.931 278.352 C 247.575 278.889,248.941 279.885,249.965 280.565 C 252.655 282.352,254.238 284.084,255.736 286.878 C 256.080 287.519,256.184 291.653,256.184 304.656 L 256.184 321.599 255.258 323.556 C 253.615 327.028,265.430 326.666,150.413 326.770 C 35.713 326.873,47.359 327.200,45.768 323.837 L 44.876 321.952 44.876 304.623 L 44.876 287.295 45.952 285.255 C 46.958 283.349,49.557 280.576,50.353 280.560 C 50.548 280.556,51.052 280.189,51.474 279.743 C 51.896 279.297,52.930 278.465,53.771 277.894 C 54.612 277.323,55.353 276.736,55.418 276.590 C 55.483 276.444,55.688 276.325,55.874 276.325 C 56.403 276.325,58.191 274.924,60.548 272.663 C 64.081 269.274,63.718 279.635,63.966 175.088 C 64.122 109.064,64.297 82.360,64.580 81.095 C 64.798 80.124,64.985 78.305,64.997 77.055 C 65.008 75.804,65.264 73.817,65.566 72.638 C 67.553 64.862,68.652 61.376,69.693 59.541 C 69.914 59.152,70.706 57.641,71.454 56.184 C 72.687 53.780,75.004 50.532,75.697 50.236 C 75.848 50.171,75.972 49.966,75.972 49.780 C 75.972 49.383,77.440 47.227,77.827 47.055 C 77.973 46.991,78.092 46.792,78.092 46.614 C 78.092 46.436,78.370 45.992,78.710 45.628 C 79.050 45.264,79.900 44.349,80.597 43.596 C 81.295 42.843,82.249 41.908,82.718 41.519 C 85.458 39.243,86.847 38.163,87.035 38.163 C 87.152 38.163,87.922 37.540,88.746 36.780 C 89.569 36.020,91.438 34.787,92.900 34.042 C 94.361 33.296,96.198 32.276,96.983 31.775 C 98.532 30.786,100.317 30.110,103.887 29.160 C 105.150 28.823,106.740 28.343,107.420 28.092 C 111.174 26.706,116.579 25.810,121.473 25.760 C 123.364 25.741,127.694 25.520,131.095 25.269 C 139.344 24.660,165.228 24.836,176.502 25.579 M176.296 75.137 C 175.756 75.882,173.556 77.032,172.672 77.032 C 172.373 77.032,171.615 77.747,170.987 78.622 C 170.359 79.496,169.713 80.212,169.551 80.212 C 169.390 80.212,169.258 80.366,169.258 80.553 C 169.258 80.741,168.821 81.355,168.286 81.919 C 167.752 82.483,166.682 83.760,165.908 84.758 C 165.134 85.756,164.379 86.572,164.230 86.572 C 164.080 86.572,163.958 86.794,163.958 87.065 C 163.958 87.335,163.719 87.648,163.428 87.760 C 163.136 87.872,162.898 88.207,162.898 88.505 C 162.898 88.802,162.765 89.046,162.604 89.046 C 162.443 89.046,161.813 89.739,161.204 90.587 C 160.595 91.435,159.628 92.667,159.055 93.326 C 157.891 94.662,156.535 96.362,153.306 100.530 C 152.102 102.085,150.866 103.605,150.559 103.908 C 150.251 104.211,149.371 105.284,148.602 106.293 C 147.834 107.302,147.078 108.127,146.924 108.127 C 146.769 108.127,146.643 108.349,146.643 108.619 C 146.643 108.890,146.405 109.203,146.113 109.315 C 145.822 109.427,145.583 109.762,145.583 110.060 C 145.583 110.357,145.451 110.601,145.290 110.601 C 145.128 110.601,144.501 111.277,143.897 112.102 C 143.292 112.928,142.232 114.209,141.540 114.949 C 140.848 115.689,140.281 116.404,140.280 116.539 C 140.278 116.674,139.523 117.676,138.601 118.765 C 137.680 119.855,136.051 121.830,134.982 123.154 C 133.913 124.479,132.761 125.854,132.420 126.209 C 132.080 126.564,131.802 127.014,131.802 127.208 C 131.802 127.403,131.679 127.562,131.529 127.562 C 131.378 127.562,130.544 128.513,129.674 129.675 C 128.804 130.836,127.973 131.791,127.827 131.795 C 127.681 131.799,127.562 132.046,127.562 132.343 C 127.562 132.641,127.323 132.976,127.032 133.088 C 126.740 133.200,126.502 133.440,126.502 133.621 C 126.502 133.803,126.167 134.303,125.758 134.732 C 125.349 135.161,124.098 136.708,122.977 138.169 C 121.857 139.630,120.681 141.041,120.364 141.304 C 120.047 141.567,119.788 142.002,119.788 142.269 C 119.788 142.537,119.667 142.756,119.518 142.756 C 119.370 142.756,118.297 143.948,117.133 145.404 C 115.970 146.860,114.898 148.053,114.753 148.054 C 114.607 148.055,114.488 148.210,114.488 148.398 C 114.488 148.585,114.024 149.213,113.457 149.793 C 112.891 150.372,111.427 152.167,110.205 153.780 C 108.982 155.394,107.805 156.873,107.588 157.067 C 106.369 158.161,103.499 163.810,103.784 164.555 C 104.643 166.797,106.727 167.118,121.201 167.231 C 129.553 167.297,133.615 167.455,134.099 167.732 C 135.410 168.483,136.753 172.026,136.351 173.675 C 136.210 174.258,135.844 175.726,135.538 176.938 C 135.232 178.150,134.982 179.567,134.982 180.087 C 134.982 180.608,134.754 181.842,134.476 182.831 C 133.974 184.610,133.328 187.137,132.367 191.078 C 132.094 192.195,131.676 193.905,131.437 194.876 C 131.198 195.848,130.889 197.279,130.751 198.057 C 130.613 198.834,130.304 200.186,130.064 201.060 C 129.121 204.504,127.820 209.873,127.024 213.604 C 126.693 215.159,126.201 217.135,125.932 217.996 C 125.662 218.856,125.442 219.899,125.442 220.312 C 125.442 220.726,125.141 222.009,124.773 223.165 C 122.024 231.797,123.331 240.224,126.727 235.770 C 127.950 234.168,128.890 233.216,129.250 233.216 C 129.619 233.216,130.742 231.883,130.742 231.445 C 130.742 231.253,130.874 231.095,131.036 231.095 C 131.197 231.095,131.868 230.345,132.527 229.427 C 133.186 228.510,133.968 227.516,134.265 227.219 C 134.562 226.921,135.563 225.693,136.489 224.490 C 137.416 223.286,138.372 222.094,138.615 221.840 C 138.857 221.586,139.610 220.669,140.288 219.802 C 140.965 218.935,141.972 217.742,142.524 217.152 C 143.077 216.561,143.889 215.521,144.330 214.841 C 144.771 214.161,145.720 212.889,146.439 212.014 C 147.158 211.140,147.936 210.181,148.167 209.884 C 150.353 207.071,151.513 205.685,152.359 204.879 C 152.908 204.355,153.357 203.759,153.357 203.553 C 153.357 203.348,153.485 203.180,153.641 203.180 C 153.797 203.180,154.950 201.801,156.203 200.114 C 157.455 198.428,158.735 196.798,159.045 196.493 C 159.356 196.187,160.934 194.187,162.553 192.049 C 164.172 189.912,165.627 188.110,165.787 188.045 C 165.947 187.980,166.078 187.702,166.078 187.426 C 166.078 187.151,166.210 186.926,166.371 186.926 C 166.533 186.926,167.159 186.250,167.764 185.424 C 168.369 184.598,169.429 183.317,170.121 182.578 C 170.812 181.838,171.378 181.167,171.378 181.086 C 171.378 181.005,172.091 180.179,172.962 179.251 C 173.833 178.322,174.549 177.437,174.552 177.285 C 174.556 177.133,175.115 176.452,175.795 175.771 C 176.475 175.091,177.032 174.381,177.032 174.193 C 177.032 174.005,177.178 173.852,177.356 173.852 C 177.535 173.852,178.038 173.255,178.475 172.527 C 178.911 171.798,179.719 170.773,180.270 170.250 C 180.821 169.726,181.272 169.130,181.272 168.925 C 181.272 168.719,181.410 168.551,181.578 168.551 C 181.747 168.551,182.329 167.875,182.871 167.049 C 183.413 166.223,184.229 165.198,184.685 164.770 C 185.140 164.342,185.512 163.825,185.512 163.621 C 185.512 163.417,185.641 163.251,185.798 163.251 C 185.954 163.251,186.855 162.200,187.798 160.915 C 188.742 159.630,189.778 158.318,190.100 157.999 C 190.423 157.681,191.433 156.436,192.345 155.232 C 193.257 154.028,194.203 152.836,194.446 152.582 C 194.690 152.328,195.181 151.405,195.539 150.530 C 195.897 149.655,196.414 148.513,196.688 147.991 C 197.166 147.081,197.133 147.002,195.894 146.057 C 194.176 144.746,192.303 144.579,178.622 144.516 C 163.704 144.448,162.592 143.749,164.587 135.689 C 164.804 134.814,165.233 132.827,165.541 131.272 C 166.073 128.584,166.595 126.400,167.649 122.438 C 168.974 117.458,170.082 112.690,170.318 110.954 C 170.463 109.885,170.773 108.295,171.006 107.420 C 171.240 106.546,171.646 104.956,171.908 103.887 C 172.387 101.932,172.992 99.504,173.977 95.583 C 174.270 94.417,174.839 92.270,175.242 90.813 C 175.644 89.355,175.973 87.765,175.971 87.279 C 175.970 86.793,176.198 85.680,176.479 84.806 C 177.836 80.580,178.013 78.566,177.252 75.989 C 176.823 74.538,176.767 74.488,176.296 75.137 M311.484 106.221 C 309.919 108.054,308.743 110.471,307.225 114.973 C 305.889 118.937,306.306 124.118,308.249 127.703 C 308.765 128.655,309.187 129.555,309.187 129.704 C 309.187 129.985,311.353 133.429,311.997 134.172 C 312.201 134.407,312.367 134.752,312.367 134.938 C 312.367 135.124,312.487 135.330,312.633 135.395 C 312.967 135.543,314.488 137.698,314.488 138.024 C 314.488 138.230,316.741 141.170,317.303 141.696 C 317.406 141.793,318.127 142.664,318.905 143.632 C 323.124 148.882,325.059 150.493,328.303 151.456 L 330.013 151.964 332.099 150.540 C 333.246 149.757,334.338 149.117,334.525 149.117 C 335.527 149.117,337.728 146.385,338.144 144.625 C 338.618 142.621,338.109 141.155,335.349 136.572 C 334.764 135.601,334.098 134.448,333.870 134.011 C 333.642 133.573,333.322 133.216,333.159 133.216 C 332.996 133.216,332.862 133.061,332.862 132.873 C 332.862 132.563,330.055 127.763,328.539 125.481 C 328.202 124.974,327.780 124.240,327.603 123.852 C 327.426 123.463,326.561 122.078,325.683 120.775 C 324.804 119.471,323.982 118.080,323.856 117.683 C 323.730 117.286,323.479 116.961,323.298 116.961 C 323.116 116.961,322.968 116.761,322.968 116.516 C 322.968 116.272,322.054 114.721,320.936 113.071 C 319.819 111.421,318.587 109.392,318.198 108.563 C 317.617 107.324,317.108 106.867,315.343 106.001 C 312.706 104.707,312.781 104.703,311.484 106.221 " stroke="none" fill="#fcfcfc" fill-rule="evenodd"></path><path id="path1" d="M131.095 25.269 C 127.694 25.520,123.364 25.741,121.473 25.760 C 116.579 25.810,111.174 26.706,107.420 28.092 C 106.740 28.343,105.150 28.823,103.887 29.160 C 100.317 30.110,98.532 30.786,96.983 31.775 C 96.198 32.276,94.361 33.296,92.900 34.042 C 91.438 34.787,89.569 36.020,88.746 36.780 C 87.922 37.540,87.152 38.163,87.035 38.163 C 86.847 38.163,85.458 39.243,82.718 41.519 C 82.249 41.908,81.295 42.843,80.597 43.596 C 79.900 44.349,79.050 45.264,78.710 45.628 C 78.370 45.992,78.092 46.436,78.092 46.614 C 78.092 46.792,77.973 46.991,77.827 47.055 C 77.440 47.227,75.972 49.383,75.972 49.780 C 75.972 49.966,75.848 50.171,75.697 50.236 C 75.004 50.532,72.687 53.780,71.454 56.184 C 70.706 57.641,69.914 59.152,69.693 59.541 C 68.652 61.376,67.553 64.862,65.566 72.638 C 65.264 73.817,65.008 75.804,64.997 77.055 C 64.985 78.305,64.798 80.124,64.580 81.095 C 64.297 82.360,64.122 109.064,63.966 175.088 C 63.718 279.635,64.081 269.274,60.548 272.663 C 58.191 274.924,56.403 276.325,55.874 276.325 C 55.688 276.325,55.483 276.444,55.418 276.590 C 55.353 276.736,54.612 277.323,53.771 277.894 C 52.930 278.465,51.896 279.297,51.474 279.743 C 51.052 280.189,50.548 280.556,50.353 280.560 C 49.557 280.576,46.958 283.349,45.952 285.255 L 44.876 287.295 44.876 304.623 L 44.876 321.952 45.768 323.837 C 47.359 327.200,35.713 326.873,150.413 326.770 C 265.430 326.666,253.615 327.028,255.258 323.556 L 256.184 321.599 256.184 304.656 C 256.184 291.653,256.080 287.519,255.736 286.878 C 254.238 284.084,252.655 282.352,249.965 280.565 C 248.941 279.885,247.575 278.889,246.931 278.352 C 246.287 277.814,244.380 276.367,242.694 275.136 C 235.815 270.114,236.292 272.120,236.144 247.564 C 236.011 225.460,235.800 227.350,238.597 225.573 L 239.915 224.735 253.207 224.735 C 265.583 224.735,266.662 224.785,268.877 225.457 C 270.895 226.071,273.498 227.736,273.498 228.414 C 273.498 228.515,274.015 229.121,274.647 229.759 C 276.191 231.319,277.424 233.904,278.486 237.809 C 279.051 239.884,279.113 242.186,279.132 261.663 C 279.145 275.380,279.285 283.669,279.516 284.455 C 279.717 285.134,280.038 286.904,280.229 288.389 C 280.595 291.225,282.023 295.724,283.548 298.850 C 284.045 299.869,284.452 300.852,284.452 301.033 C 284.452 301.215,284.651 301.575,284.894 301.835 C 285.137 302.095,285.653 302.941,286.042 303.716 C 286.430 304.490,286.933 305.283,287.159 305.477 C 287.385 305.671,287.868 306.387,288.231 307.067 C 289.450 309.346,290.716 311.118,292.360 312.846 C 293.258 313.790,293.993 314.704,293.993 314.878 C 293.993 315.052,294.144 315.194,294.329 315.194 C 294.515 315.194,295.453 315.981,296.414 316.943 C 297.376 317.904,298.974 319.190,299.965 319.800 C 300.956 320.410,301.767 321.054,301.767 321.232 C 301.767 321.409,302.005 321.555,302.297 321.555 C 302.588 321.555,302.827 321.674,302.827 321.820 C 302.827 322.054,304.859 323.203,306.360 323.819 C 306.652 323.938,307.367 324.342,307.951 324.716 C 310.197 326.156,312.417 327.057,317.138 328.446 C 318.304 328.789,319.814 329.275,320.495 329.526 C 324.345 330.950,334.874 331.421,339.046 330.355 C 346.388 328.481,352.250 326.687,353.710 325.867 C 354.585 325.377,356.493 324.360,357.951 323.608 C 359.408 322.856,360.998 321.876,361.484 321.432 C 361.970 320.987,362.924 320.316,363.604 319.941 C 364.690 319.342,369.806 314.445,372.500 311.426 C 375.824 307.701,382.332 295.905,382.332 293.604 C 382.332 293.209,382.502 292.568,382.711 292.179 C 382.919 291.791,383.221 290.728,383.384 289.817 C 383.546 288.907,383.964 287.049,384.314 285.689 C 384.911 283.363,384.961 279.124,385.142 214.488 C 385.324 149.782,385.372 145.709,385.954 144.886 C 386.294 144.406,386.572 143.793,386.572 143.526 C 386.572 143.045,388.764 140.636,389.202 140.636 C 389.441 140.636,391.417 139.290,392.054 138.693 C 392.757 138.033,393.993 135.318,393.993 134.434 C 393.993 133.358,391.896 128.962,391.267 128.721 C 391.017 128.625,390.813 128.338,390.813 128.084 C 390.813 127.829,390.693 127.568,390.546 127.503 C 390.156 127.331,386.832 123.012,385.900 121.466 C 385.461 120.738,384.955 120.141,384.777 120.141 C 384.598 120.141,384.452 119.903,384.452 119.611 C 384.452 119.320,384.313 119.081,384.142 119.081 C 383.971 119.081,383.634 118.604,383.392 118.021 C 383.151 117.438,382.813 116.961,382.643 116.961 C 382.472 116.961,382.332 116.803,382.332 116.610 C 382.332 116.188,377.436 109.521,375.843 107.774 C 375.223 107.094,374.168 105.822,373.499 104.947 C 372.829 104.072,371.926 102.959,371.492 102.473 C 370.690 101.577,369.760 100.417,366.631 96.405 C 365.672 95.175,364.400 93.604,363.804 92.914 C 363.208 92.223,362.085 90.883,361.307 89.936 C 360.530 88.989,359.732 88.043,359.533 87.835 C 359.335 87.626,358.545 86.661,357.778 85.689 C 357.011 84.717,355.703 83.249,354.870 82.426 C 354.038 81.604,353.357 80.864,353.357 80.782 C 353.357 80.589,351.375 78.285,349.912 76.778 C 349.280 76.127,348.763 75.500,348.763 75.384 C 348.763 75.269,348.246 74.583,347.615 73.861 C 345.589 71.544,344.523 70.249,344.523 70.105 C 344.523 69.903,343.143 68.551,342.937 68.551 C 342.756 68.551,342.063 68.014,339.962 66.245 C 339.264 65.657,337.500 64.577,336.042 63.844 C 334.585 63.112,332.518 61.888,331.449 61.124 C 330.380 60.360,329.157 59.731,328.731 59.726 C 328.305 59.721,327.870 59.576,327.763 59.403 C 327.656 59.230,327.136 58.980,326.607 58.848 C 326.078 58.715,325.003 58.180,324.218 57.660 C 322.655 56.623,321.162 55.876,318.728 54.913 C 317.853 54.567,316.492 53.862,315.703 53.347 C 314.202 52.368,310.286 50.448,308.922 50.023 C 308.485 49.887,308.127 49.627,308.127 49.446 C 308.127 49.265,307.889 49.117,307.597 49.117 C 307.306 49.117,307.067 48.988,307.067 48.831 C 307.067 48.583,304.337 47.100,301.732 45.933 C 300.531 45.395,299.400 44.722,298.677 44.116 C 298.336 43.830,297.341 43.303,296.466 42.946 C 293.668 41.804,291.923 40.956,290.734 40.162 C 290.097 39.737,288.860 39.089,287.986 38.723 C 284.986 37.466,283.411 36.695,282.254 35.916 C 281.617 35.487,280.221 34.765,279.152 34.312 C 278.083 33.859,277.049 33.368,276.855 33.222 C 272.922 30.261,267.215 29.789,267.149 32.420 C 267.143 32.663,267.009 32.862,266.852 32.862 C 266.046 32.862,262.154 43.981,261.939 46.896 C 261.757 49.387,263.298 51.942,266.508 54.471 C 268.481 56.026,268.121 55.686,276.193 63.604 C 282.586 69.875,285.718 72.792,286.061 72.792 C 286.725 72.792,297.195 84.028,297.937 85.536 C 299.061 87.822,299.004 88.059,295.629 95.121 C 294.729 97.005,293.993 98.785,293.993 99.076 C 293.993 99.367,293.840 99.700,293.653 99.815 C 293.466 99.931,293.160 100.537,292.974 101.161 C 292.788 101.786,292.291 103.171,291.870 104.240 C 291.449 105.309,290.968 106.661,290.800 107.244 C 290.633 107.827,290.154 109.417,289.737 110.777 C 288.683 114.210,288.308 125.086,289.184 126.781 C 289.497 127.386,289.754 128.166,289.755 128.516 C 289.756 128.866,289.995 129.607,290.285 130.164 C 290.575 130.721,290.813 131.412,290.813 131.700 C 290.813 131.988,291.039 132.645,291.316 133.161 C 291.592 133.677,292.400 135.292,293.111 136.749 C 293.821 138.207,294.706 139.876,295.077 140.459 C 295.448 141.042,295.861 141.758,295.995 142.049 C 296.129 142.341,296.334 142.659,296.451 142.756 C 296.674 142.940,299.293 147.320,299.293 147.507 C 299.293 147.566,299.850 148.222,300.530 148.965 C 301.210 149.707,301.770 150.482,301.773 150.687 C 301.778 150.996,303.612 153.286,306.527 156.625 C 306.824 156.966,307.067 157.331,307.067 157.437 C 307.067 157.544,307.427 157.981,307.867 158.409 C 308.306 158.837,309.295 159.982,310.063 160.954 C 311.601 162.900,312.702 164.167,314.319 165.849 C 314.907 166.461,315.967 167.677,316.676 168.551 C 320.862 173.720,323.709 175.254,326.902 174.058 C 329.133 173.223,330.742 172.429,330.742 172.164 C 330.742 172.018,331.054 171.742,331.436 171.550 C 333.181 170.672,335.883 169.146,336.042 168.947 C 336.306 168.620,337.351 168.019,340.194 166.560 L 342.756 165.246 344.287 166.010 C 345.129 166.431,346.085 167.070,346.412 167.431 C 346.963 168.040,346.998 172.069,346.912 224.061 C 346.810 285.688,347.009 279.721,344.913 284.028 C 342.886 288.193,336.165 292.576,331.802 292.578 C 329.544 292.579,324.028 290.529,324.028 289.689 C 324.028 289.530,323.858 289.399,323.650 289.399 C 323.441 289.399,323.036 289.164,322.749 288.877 C 322.462 288.590,321.956 288.153,321.624 287.905 C 320.229 286.864,318.490 283.464,317.598 280.035 C 317.378 279.190,317.125 269.883,316.967 256.890 C 316.793 242.468,316.564 234.505,316.287 233.216 C 316.057 232.147,315.730 230.318,315.559 229.152 C 315.389 227.986,314.911 225.919,314.497 224.558 C 314.083 223.198,313.618 221.608,313.464 221.025 C 313.061 219.499,310.394 213.759,309.252 211.959 C 306.969 208.359,304.670 205.297,303.824 204.730 C 303.277 204.364,302.828 203.938,302.828 203.785 C 302.827 203.505,301.062 201.688,299.105 199.953 C 298.528 199.442,297.592 198.513,297.025 197.890 C 296.458 197.267,295.663 196.610,295.258 196.430 C 294.854 196.250,294.046 195.789,293.463 195.405 C 292.880 195.021,292.045 194.521,291.608 194.293 C 291.170 194.066,290.813 193.746,290.813 193.583 C 290.813 193.420,290.626 193.286,290.399 193.286 C 290.171 193.286,289.734 193.074,289.427 192.815 C 289.120 192.557,287.995 191.992,286.926 191.560 C 284.366 190.526,283.345 190.090,282.602 189.711 C 277.554 187.143,270.254 186.231,252.753 185.981 L 240.312 185.804 238.707 184.391 C 237.825 183.615,237.102 182.773,237.102 182.522 C 237.102 182.271,236.864 181.867,236.572 181.625 C 236.106 181.238,236.042 175.199,236.042 131.189 C 236.042 74.683,236.209 78.658,233.364 67.403 C 232.437 63.738,231.677 61.337,231.265 60.777 C 231.050 60.486,230.571 59.532,230.200 58.657 C 228.936 55.678,224.904 49.658,222.637 47.365 C 222.333 47.058,221.531 46.095,220.855 45.223 C 220.178 44.352,219.383 43.458,219.088 43.236 C 217.979 42.403,216.608 41.012,216.608 40.721 C 216.608 40.554,215.654 39.801,214.488 39.046 C 213.322 38.291,212.367 37.545,212.367 37.388 C 212.367 37.231,212.142 37.102,211.867 37.102 C 211.592 37.102,211.313 36.974,211.249 36.817 C 211.071 36.386,208.201 34.498,206.007 33.369 C 204.938 32.818,203.984 32.281,203.887 32.173 C 203.240 31.461,199.865 30.151,196.290 29.225 C 195.124 28.923,192.739 28.253,190.989 27.736 C 189.240 27.220,187.173 26.648,186.396 26.467 C 180.925 25.190,143.227 24.373,131.095 25.269 M177.785 78.253 C 177.879 79.123,177.184 82.611,176.479 84.806 C 176.198 85.680,175.970 86.793,175.971 87.279 C 175.973 87.765,175.644 89.355,175.242 90.813 C 174.839 92.270,174.270 94.417,173.977 95.583 C 172.992 99.504,172.387 101.932,171.908 103.887 C 171.646 104.956,171.240 106.546,171.006 107.420 C 170.773 108.295,170.463 109.885,170.318 110.954 C 170.082 112.690,168.974 117.458,167.649 122.438 C 166.595 126.400,166.073 128.584,165.541 131.272 C 165.233 132.827,164.804 134.814,164.587 135.689 C 162.592 143.749,163.704 144.448,178.622 144.516 C 192.303 144.579,194.176 144.746,195.894 146.057 C 197.133 147.002,197.166 147.081,196.688 147.991 C 196.414 148.513,195.897 149.655,195.539 150.530 C 195.181 151.405,194.690 152.328,194.446 152.582 C 194.203 152.836,193.257 154.028,192.345 155.232 C 191.433 156.436,190.423 157.681,190.100 157.999 C 189.778 158.318,188.742 159.630,187.798 160.915 C 186.855 162.200,185.954 163.251,185.798 163.251 C 185.641 163.251,185.512 163.417,185.512 163.621 C 185.512 163.825,185.140 164.342,184.685 164.770 C 184.229 165.198,183.413 166.223,182.871 167.049 C 182.329 167.875,181.747 168.551,181.578 168.551 C 181.410 168.551,181.272 168.719,181.272 168.925 C 181.272 169.130,180.821 169.726,180.270 170.250 C 179.719 170.773,178.911 171.798,178.475 172.527 C 178.038 173.255,177.535 173.852,177.356 173.852 C 177.178 173.852,177.032 174.005,177.032 174.193 C 177.032 174.381,176.475 175.091,175.795 175.771 C 175.115 176.452,174.556 177.133,174.552 177.285 C 174.549 177.437,173.833 178.322,172.962 179.251 C 172.091 180.179,171.378 181.005,171.378 181.086 C 171.378 181.167,170.812 181.838,170.121 182.578 C 169.429 183.317,168.369 184.598,167.764 185.424 C 167.159 186.250,166.533 186.926,166.371 186.926 C 166.210 186.926,166.078 187.151,166.078 187.426 C 166.078 187.702,165.947 187.980,165.787 188.045 C 165.627 188.110,164.172 189.912,162.553 192.049 C 160.934 194.187,159.356 196.187,159.045 196.493 C 158.735 196.798,157.455 198.428,156.203 200.114 C 154.950 201.801,153.797 203.180,153.641 203.180 C 153.485 203.180,153.357 203.348,153.357 203.553 C 153.357 203.759,152.908 204.355,152.359 204.879 C 151.513 205.685,150.353 207.071,148.167 209.884 C 147.936 210.181,147.158 211.140,146.439 212.014 C 145.720 212.889,144.771 214.161,144.330 214.841 C 143.889 215.521,143.077 216.561,142.524 217.152 C 141.972 217.742,140.965 218.935,140.288 219.802 C 139.610 220.669,138.857 221.586,138.615 221.840 C 138.372 222.094,137.416 223.286,136.489 224.490 C 135.563 225.693,134.562 226.921,134.265 227.219 C 133.968 227.516,133.186 228.510,132.527 229.427 C 131.868 230.345,131.197 231.095,131.036 231.095 C 130.874 231.095,130.742 231.253,130.742 231.445 C 130.742 231.883,129.619 233.216,129.250 233.216 C 128.890 233.216,127.950 234.168,126.727 235.770 C 123.331 240.224,122.024 231.797,124.773 223.165 C 125.141 222.009,125.442 220.726,125.442 220.312 C 125.442 219.899,125.662 218.856,125.932 217.996 C 126.201 217.135,126.693 215.159,127.024 213.604 C 127.820 209.873,129.121 204.504,130.064 201.060 C 130.304 200.186,130.613 198.834,130.751 198.057 C 130.889 197.279,131.198 195.848,131.437 194.876 C 131.676 193.905,132.094 192.195,132.367 191.078 C 133.328 187.137,133.974 184.610,134.476 182.831 C 134.754 181.842,134.982 180.608,134.982 180.087 C 134.982 179.567,135.232 178.150,135.538 176.938 C 135.844 175.726,136.210 174.258,136.351 173.675 C 136.753 172.026,135.410 168.483,134.099 167.732 C 133.615 167.455,129.553 167.297,121.201 167.231 C 106.727 167.118,104.643 166.797,103.784 164.555 C 103.499 163.810,106.369 158.161,107.588 157.067 C 107.805 156.873,108.982 155.394,110.205 153.780 C 111.427 152.167,112.891 150.372,113.457 149.793 C 114.024 149.213,114.488 148.585,114.488 148.398 C 114.488 148.210,114.607 148.055,114.753 148.054 C 114.898 148.053,115.970 146.860,117.133 145.404 C 118.297 143.948,119.370 142.756,119.518 142.756 C 119.667 142.756,119.788 142.537,119.788 142.269 C 119.788 142.002,120.047 141.567,120.364 141.304 C 120.681 141.041,121.857 139.630,122.977 138.169 C 124.098 136.708,125.349 135.161,125.758 134.732 C 126.167 134.303,126.502 133.803,126.502 133.621 C 126.502 133.440,126.740 133.200,127.032 133.088 C 127.323 132.976,127.562 132.641,127.562 132.343 C 127.562 132.046,127.681 131.799,127.827 131.795 C 127.973 131.791,128.804 130.836,129.674 129.675 C 130.544 128.513,131.378 127.562,131.529 127.562 C 131.679 127.562,131.802 127.403,131.802 127.208 C 131.802 127.014,132.080 126.564,132.420 126.209 C 132.761 125.854,133.913 124.479,134.982 123.154 C 136.051 121.830,137.680 119.855,138.601 118.765 C 139.523 117.676,140.278 116.674,140.280 116.539 C 140.281 116.404,140.848 115.689,141.540 114.949 C 142.232 114.209,143.292 112.928,143.897 112.102 C 144.501 111.277,145.128 110.601,145.290 110.601 C 145.451 110.601,145.583 110.357,145.583 110.060 C 145.583 109.762,145.822 109.427,146.113 109.315 C 146.405 109.203,146.643 108.890,146.643 108.619 C 146.643 108.349,146.769 108.127,146.924 108.127 C 147.078 108.127,147.834 107.302,148.602 106.293 C 149.371 105.284,150.251 104.211,150.559 103.908 C 150.866 103.605,152.102 102.085,153.306 100.530 C 156.535 96.362,157.891 94.662,159.055 93.326 C 159.628 92.667,160.595 91.435,161.204 90.587 C 161.813 89.739,162.443 89.046,162.604 89.046 C 162.765 89.046,162.898 88.802,162.898 88.505 C 162.898 88.207,163.136 87.872,163.428 87.760 C 163.719 87.648,163.958 87.335,163.958 87.065 C 163.958 86.794,164.080 86.572,164.230 86.572 C 164.379 86.572,165.134 85.756,165.908 84.758 C 166.682 83.760,167.752 82.483,168.286 81.919 C 168.821 81.355,169.258 80.741,169.258 80.553 C 169.258 80.366,169.390 80.212,169.551 80.212 C 169.713 80.212,170.359 79.496,170.987 78.622 C 171.615 77.747,172.373 77.032,172.672 77.032 C 173.556 77.032,175.756 75.882,176.296 75.137 C 176.807 74.433,177.537 75.961,177.785 78.253 M315.343 106.001 C 317.108 106.867,317.617 107.324,318.198 108.563 C 318.587 109.392,319.819 111.421,320.936 113.071 C 322.054 114.721,322.968 116.272,322.968 116.516 C 322.968 116.761,323.116 116.961,323.298 116.961 C 323.479 116.961,323.730 117.286,323.856 117.683 C 323.982 118.080,324.804 119.471,325.683 120.775 C 326.561 122.078,327.426 123.463,327.603 123.852 C 327.780 124.240,328.202 124.974,328.539 125.481 C 330.055 127.763,332.862 132.563,332.862 132.873 C 332.862 133.061,332.996 133.216,333.159 133.216 C 333.322 133.216,333.642 133.573,333.870 134.011 C 334.098 134.448,334.764 135.601,335.349 136.572 C 338.109 141.155,338.618 142.621,338.144 144.625 C 337.728 146.385,335.527 149.117,334.525 149.117 C 334.338 149.117,333.246 149.757,332.099 150.540 L 330.013 151.964 328.303 151.456 C 325.059 150.493,323.124 148.882,318.905 143.632 C 318.127 142.664,317.406 141.793,317.303 141.696 C 316.741 141.170,314.488 138.230,314.488 138.024 C 314.488 137.698,312.967 135.543,312.633 135.395 C 312.487 135.330,312.367 135.124,312.367 134.938 C 312.367 134.752,312.201 134.407,311.997 134.172 C 311.353 133.429,309.187 129.985,309.187 129.704 C 309.187 129.555,308.765 128.655,308.249 127.703 C 305.395 122.439,305.910 116.292,309.848 108.590 C 311.662 105.041,312.542 104.626,315.343 106.001 " stroke="none" fill="#d4d4d4" fill-rule="evenodd"></path></g></svg>